<?xml version="1.0" encoding="utf-8"?>
<!-- Generator: Adobe Illustrator 23.0.3, SVG Export Plug-In . SVG Version: 6.00 Build 0)  -->
<svg version="1.1" xmlns="http://www.w3.org/2000/svg" xmlns:xlink="http://www.w3.org/1999/xlink" x="0px" y="0px"
	 viewBox="0 0 293.22 223" style="enable-background:new 0 0 293.22 223;" xml:space="preserve">
<g id="assets">
	<text transform="matrix(1 0 0 1 -299.6792 85.1398)" style="font-family:'AntonellieCalligraphyDemo'; font-size:74.739px;">assist</text>
	<path d="M-199.4-31.58c0.55,2.88,1.13,5.81,1.65,8.75c0.72,4.07,1.41,8.15,2.06,12.23c0.55,3.46,1.04,6.93,0.91,10.44
		c-0.16,4.46-1,8.76-3.36,12.64c-2.27,3.75-5.52,6.28-9.63,7.71c-3.59,1.25-7.28,1.53-11.04,1.09c-4.93-0.57-9.48-2.18-13.59-4.99
		c-2.6-1.78-4.79-3.98-6.21-6.84c-0.75-1.51-1.22-3.1-1.24-4.81c-0.03-3.02,0.3-5.97,1.53-8.77c3.42-7.75,13.73-9.34,19.32-2.97
		c4.63,5.27,2.99,13.74-3.27,16.93c-1.3,0.66-2.65,1.08-4.14,1.29c0.32,1.41,1.06,2.53,2.14,3.44c1.74,1.45,3.81,2.09,6.02,2.25
		c5.01,0.35,9.46-1.08,13.2-4.47c2.97-2.68,4.55-6.1,5.02-10.04c0.37-3.04,0.1-6.06-0.31-9.07c-0.63-4.68-1.31-9.35-2.03-14.01
		c-0.49-3.14-1.1-6.27-1.67-9.5c-0.42,0.09-0.83,0.19-1.23,0.27c-4.38,0.9-8.81,1.22-13.28,0.96c-4.42-0.26-8.69-1.16-12.79-2.85
		c-5.97-2.47-10.91-6.31-14.9-11.37c-4.37-5.54-7.16-11.83-8.77-18.67c-1.17-4.95-1.61-9.97-1.27-15.05
		c0.35-5.19,1.73-10.13,3.87-14.85c2.74-6.05,6.52-11.43,10.7-16.55c4.8-5.87,10.13-11.24,15.39-16.69
		c0.96-0.99,1.94-1.97,2.88-2.98c0.17-0.19,0.28-0.55,0.24-0.81c-0.82-5.06-1.74-10.1-2.5-15.17c-0.58-3.84-1.03-7.7-1.41-11.57
		c-0.33-3.36-0.08-6.72,0.37-10.07c0.55-4.11,1.53-8.12,2.91-12.03c1.24-3.51,2.76-6.89,4.8-10.01c1.67-2.56,3.54-4.94,6.24-6.51
		c2.91-1.7,5.79-1.31,8.19,1.03c1.87,1.83,3.17,4.03,4.22,6.38c2.04,4.53,3.15,9.32,3.87,14.22c0.81,5.55,0.93,11.12,0.67,16.71
		c-0.3,6.41-1.31,12.71-3.3,18.82c-1.95,5.97-4.79,11.5-8.52,16.56c-2.33,3.17-4.92,6.13-7.72,8.9c-0.29,0.28-0.4,0.52-0.31,0.95
		c1.39,6.77,2.76,13.54,4.14,20.31c0.03,0.13,0.08,0.26,0.1,0.33c1.63-0.17,3.24-0.41,4.86-0.48c5.89-0.23,11.21,1.42,15.86,5.06
		c4.88,3.83,7.95,8.87,9.73,14.74c1.22,4.02,1.64,8.14,1.33,12.33c-0.31,4.21-1.36,8.22-3.25,12c-2.69,5.37-6.66,9.54-11.88,12.49
		C-196.27-33.04-197.83-32.35-199.4-31.58z M-204.84-34.92c-2.67-13.66-5.29-27.14-7.93-40.67c-0.29,0.09-0.48,0.14-0.66,0.2
		c-8.84,3.16-13.08,12.9-9.42,21.57c1.46,3.45,3.7,6.33,6.41,8.87c0.41,0.38,0.82,0.75,1.25,1.14c-0.3,0.43-0.57,0.83-0.84,1.24
		c-0.74-0.35-1.43-0.65-2.1-1c-3.9-1.99-7.42-4.47-10.23-7.88c-2.65-3.22-4.29-6.88-4.76-11.02c-0.41-3.58,0.12-7.07,1.48-10.4
		c2.93-7.21,8.13-12.2,15.16-15.38c0.35-0.16,0.71-0.29,1.09-0.44c-1.27-6.41-2.53-12.78-3.8-19.21c-0.19,0.15-0.33,0.25-0.45,0.36
		c-2.72,2.41-5.45,4.82-8.17,7.24c-3.81,3.39-7.55,6.85-10.76,10.84c-2.83,3.52-5.09,7.34-6.5,11.64
		c-2.13,6.5-2.38,13.12-1.15,19.81c0.76,4.14,2.3,7.98,4.73,11.43c3.75,5.32,8.82,8.84,14.9,11.01c3.35,1.2,6.79,2.01,10.35,2.05
		c2.15,0.02,4.32-0.12,6.45-0.37C-208.16-34.08-206.55-34.55-204.84-34.92z M-219.61-132.12c0.15-0.13,0.22-0.18,0.28-0.25
		c3.98-4.22,7.81-8.57,11.06-13.39c3.55-5.25,6.31-10.84,6.92-17.27c0.27-2.9,0.27-5.79-0.55-8.62c-0.18-0.61-0.43-1.21-0.72-1.78
		c-1.43-2.73-4.01-3.44-6.75-1.91c-2.49,1.39-4.23,3.52-5.7,5.88c-2.16,3.46-3.5,7.26-4.45,11.2c-0.72,2.99-1.16,6.02-1.38,9.09
		c-0.12,1.59-0.25,3.19-0.18,4.78c0.11,2.19,0.38,4.37,0.64,6.55C-220.21-135.95-219.9-134.08-219.61-132.12z M-208.56-76.24
		c2.72,13.15,5.42,26.23,8.12,39.3c0.04-0.01,0.09,0,0.12-0.02c0.14-0.07,0.28-0.14,0.41-0.22c6.13-3.72,9.34-9.24,9.94-16.3
		c0.32-3.75-0.26-7.41-1.73-10.89c-2.18-5.17-5.63-9.09-11.05-11.01C-204.61-76.03-206.53-76.28-208.56-76.24z"/>
	<g>
		<path d="M-231.96,276.78c0-1.7-0.39-3.58-1.16-5.65c-1.91-3.67-2.87-6.52-2.87-8.56c0.03-0.06,0.05-0.14,0.05-0.23v-0.28
			c0-2.87,1.91-6.4,5.74-10.6c0.86-0.77,1.3-1.46,1.3-2.08v-0.23c0-1.33-0.86-2.87-2.59-4.63c-2.19-2-4.18-3.01-5.97-3.01
			c-0.43,0-0.88,0.12-1.34,0.37c-1.26,1.3-2.41,2.59-3.42,3.89c-1.67,2.16-2.75,3.89-3.24,5.18l-20.31,21.79
			c-1.15,1.16-1.99,2.06-2.55,2.69c-1.5,1.53-2.86,2.87-4.07,4.01c-3.79,3.43-6.8,5.86-9.02,7.31h-0.09
			c0.68-1.88,1.48-3.78,2.41-5.69c9.01-17.68,13.9-27.27,14.67-28.78c0.86-1.51,1.3-2.56,1.3-3.15c0-1.02-0.65-2.34-1.94-3.98
			c-2.44-2.44-4.64-3.66-6.62-3.66c-1.02,0-1.71,0.42-2.08,1.25c-1.64,3.27-2.7,5.32-3.19,6.15c-0.43-1.63-1.67-3.25-3.7-4.86
			c-2.38-1.7-5.2-2.55-8.47-2.55c-6.23,0-12.08,3.46-17.54,10.37c-2.71,3.61-4.87,7.08-6.48,10.41c-3.39,7.43-5.09,13.53-5.09,18.28
			c0,0.12-0.01,0.25-0.05,0.37c0.03,0.09,0.05,0.2,0.05,0.32v0.28c0,3.55,1,6.48,3.01,8.79c2.07,2.13,4.43,3.19,7.08,3.19
			c2.16,0,4.89-1.1,8.19-3.29c1.79-1.11,3.96-2.71,6.53-4.81h0.05v0.23c0,0.92,0.12,1.77,0.37,2.54c1.42,3.64,3.64,5.46,6.66,5.46
			c3.58,0,8.42-2.62,14.53-7.87c1.48-1.14,4.01-3.53,7.59-7.17c0.59-0.58,1.03-1.03,1.31-1.36c0.27-0.27,0.54-0.56,0.82-0.86
			l15.64-16.75h0.05c0.19,1.64,1.02,4.07,2.5,7.31c0.86,1.42,1.3,2.95,1.3,4.58c0,2.41-0.99,5.11-2.96,8.1
			c-3.3,4.26-6.49,6.39-9.58,6.39c-0.86,0-1.87-0.25-3.01-0.74c0-0.9,0.4-2.04,1.2-3.43c0.31-0.74,1.26-1.87,2.87-3.38
			c2.04-1.51,3.86-2.27,5.46-2.27h0.56c0.31,0,0.68,0.02,1.11,0.05c0.34,0,0.59-0.25,0.74-0.74c0-0.68-0.45-1.42-1.34-2.22
			c-0.65-0.65-1.68-0.97-3.1-0.97h-0.05c-2.81,0-5.46,1.1-7.96,3.29c-2.75,2.81-4.12,5.68-4.12,8.61c0,2.13,0.74,4.12,2.22,5.97
			c3.36,3.7,7.51,5.55,12.45,5.55c6.2-0.49,10.97-4.13,14.3-10.92c1.26-2.62,1.9-5.07,1.9-7.36V276.78z M-290.45,275.77
			c-2.01,1.97-4.04,3.83-6.11,5.55c-5.03,4.16-8.64,6.57-10.83,7.22c-0.15-0.59-0.23-1.19-0.23-1.81c0-1.91,0.46-4.53,1.39-7.87
			c0.62-2.25,1.53-4.75,2.73-7.5c1.33-2.9,2.9-5.71,4.72-8.42c1.11-1.6,2.31-3.16,3.61-4.67c4.5-4.75,8.47-7.13,11.89-7.13h0.28
			c0.43,0,0.82,0.03,1.16,0.09c1.42,0.4,2.34,0.6,2.78,0.6l0.6-0.05c0,0.03,0.01,0.05,0.05,0.05c-2.04,4.01-3.05,6.03-3.05,6.06
			C-286.38,267.34-289.37,273.3-290.45,275.77z"/>
		<path d="M-163.66,240.37c0.8,0,1.42-0.25,1.85-0.74c3.73-7.19,5.89-11.43,6.48-12.73c0.74-1.23,1.11-2.1,1.11-2.59v-0.28
			c0-0.96-0.59-2.18-1.76-3.66c-2.41-2.59-4.67-3.89-6.8-3.89c-0.68,0-1.25,0.22-1.71,0.65c-0.19,0.28-2.33,4.47-6.43,12.59
			c-0.83,1.45-1.25,2.41-1.25,2.87v0.18c0,1.33,0.91,2.92,2.73,4.77C-167.29,239.43-165.36,240.37-163.66,240.37z"/>
		<path d="M-64.45,232.59c-0.53-1.57-1.59-2.91-3.19-4.03c-1.11-0.83-2.39-1.25-3.84-1.25h-17.86c1.11-2.16,2.25-4.4,3.43-6.71
			c0.68-1.2,1.02-2.04,1.02-2.5v-0.23c0-0.99-0.62-2.25-1.85-3.79c-2.41-2.5-4.63-3.75-6.66-3.75h-0.05c-0.77,0-1.37,0.25-1.81,0.74
			c-0.53,0.99-3.08,6-7.68,15.04c-0.22,0.4-0.42,0.8-0.6,1.2h-20.41c-0.4,0-0.74,0.02-1.02,0.05c-0.74,0.25-1.11,0.73-1.11,1.44
			c0,0.92,0.51,1.99,1.53,3.19c1.82,1.82,3.47,2.73,4.95,2.73h12.26c-10.92,21.44-16.54,32.48-16.84,33.13
			c-1.46,2.71-2.67,5.13-3.66,7.33c-0.65,0.68-1.48,1.55-2.49,2.62c-4.17,4.23-6.63,6.57-7.4,7.03h-0.05
			c1.3-2.62,1.94-5.07,1.94-7.36v-0.69c0-1.7-0.4-3.58-1.2-5.65c-1.91-3.67-2.87-6.52-2.87-8.56c0.03-0.06,0.05-0.14,0.05-0.23
			v-0.28c0-2.87,1.93-6.4,5.79-10.6c0.86-0.77,1.3-1.46,1.3-2.08v-0.23c0-1.33-0.86-2.87-2.59-4.63c-2.19-2-4.18-3.01-5.97-3.01
			c-0.43,0-0.88,0.12-1.34,0.37c-1.3,1.3-2.45,2.59-3.47,3.89c-1.64,2.16-2.7,3.89-3.19,5.18l-20.31,21.79
			c-0.31,0.31-0.59,0.59-0.86,0.87c-0.01,0.01-0.01,0.01-0.02,0.01c-3.7,3.83-6.29,6.35-7.77,7.59c-2.99,2.59-5.34,4.44-7.03,5.55
			l-0.09-0.05c0.49-1.33,1.02-2.61,1.57-3.84c1.57-3.21,6.46-12.86,14.67-28.97c1.42-2.62,2.13-4.13,2.13-4.53
			c0-1.42-0.8-2.98-2.41-4.67c-2.28-2.13-4.33-3.19-6.15-3.19c-0.77,0-1.37,0.25-1.8,0.74c-0.9,1.67-5.37,10.44-13.42,26.33
			c-1.27,2.36-2.34,4.49-3.24,6.46c-0.75,0.76-1.85,1.91-3.33,3.45c-3.98,4.01-6.32,6.25-7.03,6.71h-0.05
			c1.23-2.5,1.85-4.83,1.85-6.99v-0.69c0-1.6-0.39-3.39-1.16-5.37c-1.79-3.49-2.68-6.19-2.68-8.1c0.03-0.06,0.05-0.14,0.05-0.23
			v-0.28c0-2.68,1.82-6.03,5.46-10.04c0.09-0.09,0.17-0.35,0.23-0.79v-0.23c0-1.26-0.8-2.73-2.41-4.4c-2.1-1.91-4-2.87-5.69-2.87
			c-0.4,0-0.83,0.12-1.3,0.37c-0.56,0.46-1.31,1.3-2.27,2.5c-1.57,2.07-2.59,3.72-3.05,4.95c-1.2,3.05-1.53,5.8-0.97,8.24h0.05
			c0.15,1.54,0.94,3.86,2.36,6.94c0.8,1.36,1.2,2.81,1.2,4.35c0,2.28-0.93,4.84-2.78,7.68c-3.15,4.04-6.19,6.06-9.12,6.06
			c-0.83,0-1.79-0.23-2.87-0.69c0-0.86,0.4-1.94,1.2-3.24c0.28-0.71,1.17-1.79,2.68-3.24c1.91-1.42,3.64-2.13,5.18-2.13h0.56
			c0.28,0,0.62,0.01,1.02,0.05c0.34,0,0.57-0.23,0.69-0.69c0-0.65-0.42-1.34-1.25-2.08c-0.62-0.65-1.6-0.97-2.96-0.97h-0.05
			c-2.65,0-5.17,1.05-7.54,3.15c-2.59,2.65-3.89,5.37-3.89,8.14c0,2.01,0.69,3.9,2.08,5.69c3.21,3.48,7.16,5.23,11.85,5.23
			c1.36,0,3.38-0.31,6.06-0.92c2.19-0.62,3.79-1.2,4.81-1.76c1.36-0.49,3.56-2,6.62-4.53c0.84-0.73,1.91-1.73,3.18-2.96
			c-0.01,0.15-0.03,0.32-0.03,0.46c0,0.59,0.11,1.31,0.32,2.17c1.42,3.79,3.69,5.69,6.8,5.69c3.64,0,8.7-2.81,15.18-8.42
			c1.73-1.45,4.2-3.82,7.4-7.13c0.36-0.33,0.62-0.6,0.82-0.84c0.28-0.28,0.56-0.57,0.85-0.87l15.64-16.75h0.05
			c0.15,1.64,0.97,4.07,2.45,7.31c0.86,1.42,1.3,2.95,1.3,4.58c0,2.41-0.97,5.11-2.91,8.1c-3.3,4.26-6.49,6.39-9.58,6.39
			c-0.9,0-1.91-0.25-3.05-0.74c0-0.9,0.42-2.04,1.25-3.43c0.31-0.74,1.26-1.87,2.87-3.38c2-1.51,3.83-2.27,5.46-2.27h0.56
			c0.31,0,0.68,0.02,1.11,0.05c0.34,0,0.59-0.25,0.74-0.74c0-0.68-0.45-1.42-1.34-2.22c-0.68-0.65-1.73-0.97-3.15-0.97h-0.05
			c-2.78,0-5.43,1.1-7.96,3.29c-2.71,2.81-4.07,5.68-4.07,8.61c0,2.13,0.72,4.12,2.18,5.97c3.39,3.7,7.56,5.55,12.49,5.55
			c1.42,0,3.55-0.34,6.39-1.02c2.31-0.65,4.01-1.26,5.09-1.85c1.42-0.52,3.75-2.11,6.99-4.77c0.7-0.61,1.56-1.41,2.55-2.36
			c0.01,0.92,0.12,1.74,0.36,2.45c1.42,3.64,3.64,5.46,6.66,5.46c3.55,0,8.39-2.62,14.53-7.87c1.51-1.17,4.04-3.56,7.59-7.17
			c1.14-1.11,1.71-1.77,1.71-1.99c0-0.46-0.19-0.94-0.55-1.44c-0.99-1.17-1.91-1.76-2.78-1.76h-0.28l-0.28,0.05
			c-2.35,2.44-4.34,4.43-5.97,5.97c-3.79,3.43-6.82,5.86-9.07,7.31h-0.09l0.32-0.88c1.08-2.68,3.29-7.23,6.62-13.65
			c1.39-2.71,7.77-15.22,19.16-37.53h27.16c0.15,0,0.25-0.01,0.28-0.05c0.83-0.15,1.25-0.63,1.25-1.43
			C-64.41,233.09-64.42,232.87-64.45,232.59z"/>
	</g>
	<path d="M-274.29,283.27c-0.35,0.11-0.7,0.23-1.04,0.34c-0.1,0.03-0.93,0.34-0.66,0.23c-1.18,0.49-1.81,0.95-2.76,2.09
		c-1.23,1.47-3.39,1.69-5.16,1.06c-1.5,1.77-3.33,3.32-5.56,4.62c-0.13,0.08-0.28,0.14-0.41,0.21c-0.01,0-0.02,0-0.02,0
		c-0.36,0.36-0.79,0.65-1.29,0.86c-0.47,0.3-1.03,0.53-1.65,0.64c-0.31,0.12-0.63,0.23-0.99,0.29c0,0,0,0,0,0
		c-0.19,0.06-0.4,0.1-0.6,0.14c0,0.01,0,0.01,0,0.02c-1.71,0.34-3.33,0.78-4.97,0.95c-2.12,0.21-4.27,0.31-6.41,0.25
		c-1.71-0.05-4.46-0.45-6.11-0.89c-7.95-2.09-14.48-6.03-18.95-12.63c-2.37-3.5-3.83-7.37-4.52-11.51
		c-1.11-6.71-0.73-13.33,1.51-19.78c1.48-4.27,3.82-8.05,6.71-11.52c3.28-3.93,7.08-7.32,10.96-10.64c2.76-2.37,5.53-4.73,8.3-7.09
		c0.13-0.11,0.27-0.21,0.46-0.35c1.15,6.46,5.87,32.59,5.88,32.68c1.31-0.56,2.93-0.54,4.34,0.04c-0.06-0.29-5.38-28.65-6.65-35.44
		c-0.08-0.43,0.04-0.67,0.33-0.95c2.85-2.72,5.49-5.62,7.88-8.75c3.82-5,6.76-10.47,8.82-16.4c2.11-6.07,3.23-12.35,3.65-18.76
		c0.36-5.58,0.35-11.16-0.36-16.72c-0.63-4.91-1.66-9.72-3.61-14.29c-1.06-2.48-2.39-4.8-4.37-6.72c-2.01-1.93-5.05-2.41-7.52-1.13
		c-3.29,1.7-5.42,4.57-7.39,7.58c-0.74,1.13-1.42,2.29-2.01,3.5c-3.04,6.29-4.99,12.87-5.76,19.76c-0.32,2.82-0.28,7.45-0.02,10.28
		c0.27,3.02,0.59,6.03,0.98,9.03c0.67,5.08,1.49,10.14,2.22,15.21c0.04,0.25-0.08,0.62-0.25,0.8c-0.95,1-1.95,1.96-2.93,2.93
		c-5.36,5.35-10.79,10.62-15.7,16.4c-4.28,5.04-8.16,10.35-11.01,16.35c-2.23,4.69-3.7,9.6-4.14,14.78c-0.43,5.07-0.08,10.1,1,15.07
		c1.49,6.87,4.16,13.21,8.43,18.83c3.9,5.14,8.77,9.07,14.69,11.64c4.06,1.77,8.32,2.74,12.73,3.09c4.47,0.35,8.89,0.11,13.29-0.71
		c0.41-0.08,0.81-0.16,1.24-0.25c0.51,3.24,1.06,6.38,1.49,9.53c0.64,4.68,1.23,9.36,1.78,14.04c0.35,3.01,0.57,6.05,0.15,9.07
		c-0.55,3.93-2.19,7.33-5.21,9.95c-3.81,3.31-8.28,4.67-13.28,4.22c-2.2-0.2-4.26-0.88-5.98-2.36c-1.07-0.92-1.78-2.06-2.08-3.48
		c1.3-0.16,2.5-0.48,3.66-0.98c6.37-2.77,8.71-10.92,4.56-16.5c-5.33-7.15-16.18-5.9-19.85,2.02c-1.28,2.77-1.66,5.72-1.69,8.74
		c-0.02,1.71,0.43,3.31,1.15,4.83c1.55,3.27,4.1,5.71,7.15,7.67c3.1,1.99,6.57,3.38,10.18,4.13c4.53,0.94,8.98,0.92,13.31-0.5
		c4.14-1.36,7.43-3.83,9.77-7.53c2.42-3.84,3.34-8.12,3.59-12.58c0.19-3.51-0.24-6.99-0.72-10.46c-0.57-4.1-1.19-8.18-1.83-12.27
		c-0.46-2.95-1-5.89-1.49-8.78c1.58-0.75,3.16-1.4,4.65-2.21c5.28-2.85,9.32-6.95,12.11-12.27c0.03-0.05,0.05-0.1,0.07-0.15
		C-272.92,282.81-273.6,283.04-274.29,283.27z M-308.43,179.36c0.26-2.78,0.66-5.54,1.33-8.25c1.05-4.25,2.49-8.35,4.89-12.04
		c1.52-2.34,3.3-4.43,5.81-5.78c2.76-1.48,5.33-0.72,6.71,2.03c0.28,0.57,0.52,1.18,0.69,1.79c0.77,2.84,0.72,5.74,0.39,8.63
		c-0.73,6.42-3.59,11.95-7.24,17.14c-3.34,4.76-7.25,9.04-11.31,13.18c-0.06,0.06-0.14,0.12-0.29,0.24
		c-0.25-1.97-0.53-3.84-0.72-5.73c-0.22-2.18-0.45-4.37-0.52-6.56C-308.73,182.48-308.57,180.91-308.43,179.36z"/>
</g>
<g id="logo">
	<g>
		<path d="M121.25,146.88c0-1.7-0.39-3.58-1.16-5.65c-1.91-3.67-2.87-6.52-2.87-8.56c0.03-0.06,0.05-0.14,0.05-0.23v-0.28
			c0-2.87,1.91-6.4,5.74-10.6c0.86-0.77,1.3-1.46,1.3-2.08v-0.23c0-1.33-0.86-2.87-2.59-4.63c-2.19-2-4.18-3.01-5.97-3.01
			c-0.43,0-0.88,0.12-1.34,0.37c-1.26,1.3-2.41,2.59-3.42,3.89c-1.67,2.16-2.75,3.89-3.24,5.18l-20.31,21.79
			c-1.15,1.16-1.99,2.06-2.55,2.69c-1.5,1.53-2.86,2.87-4.07,4.01c-3.79,3.43-6.8,5.86-9.02,7.31h-0.09
			c0.68-1.88,1.48-3.78,2.41-5.69c9.01-17.68,13.9-27.27,14.67-28.78c0.86-1.51,1.3-2.56,1.3-3.15c0-1.02-0.65-2.34-1.94-3.98
			c-2.44-2.44-4.64-3.66-6.62-3.66c-1.02,0-1.71,0.42-2.08,1.25c-1.64,3.27-2.7,5.32-3.19,6.15c-0.43-1.63-1.67-3.25-3.7-4.86
			c-2.38-1.7-5.2-2.55-8.47-2.55c-3.36,0-6.6,1.01-9.73,3.02c-1.69-9.01-4.19-22.33-5.01-26.71c-0.08-0.43,0.04-0.67,0.33-0.95
			c2.85-2.72,5.49-5.62,7.88-8.75c3.82-5,6.76-10.47,8.82-16.4c2.11-6.07,3.23-12.35,3.65-18.76c0.36-5.58,0.35-11.16-0.36-16.72
			c-0.63-4.91-1.66-9.72-3.61-14.29c-1.06-2.48-2.39-4.8-4.37-6.72c-2.01-1.93-5.05-2.41-7.52-1.13c-3.29,1.7-5.42,4.57-7.39,7.58
			c-0.74,1.13-1.42,2.29-2.01,3.5c-3.04,6.29-4.99,12.87-5.76,19.76c-0.32,2.82-0.28,7.45-0.02,10.28c0.27,3.02,0.59,6.03,0.98,9.03
			c0.67,5.08,1.49,10.14,2.22,15.21c0.04,0.25-0.08,0.62-0.25,0.8c-0.95,1-1.95,1.96-2.93,2.93c-5.36,5.35-10.79,10.62-15.7,16.4
			c-4.28,5.04-8.16,10.35-11.01,16.35c-2.23,4.69-3.7,9.6-4.14,14.78c-0.43,5.07-0.08,10.1,1,15.07c1.49,6.87,4.16,13.21,8.43,18.83
			c3.9,5.14,8.77,9.07,14.69,11.64c4.06,1.77,8.32,2.74,12.73,3.09c4.47,0.35,8.89,0.11,13.29-0.71c0.41-0.08,0.81-0.16,1.24-0.25
			c0.51,3.24,1.06,6.38,1.49,9.53c0.64,4.68,1.23,9.36,1.78,14.04c0.35,3.01,0.57,6.05,0.15,9.07c-0.55,3.93-2.19,7.33-5.21,9.95
			c-3.81,3.31-8.28,4.67-13.28,4.22c-2.2-0.2-4.26-0.88-5.98-2.36c-1.07-0.92-1.78-2.06-2.08-3.48c1.3-0.16,2.5-0.48,3.66-0.98
			c6.37-2.77,8.71-10.92,4.56-16.5c-5.33-7.15-16.18-5.9-19.85,2.02c-1.28,2.77-1.66,5.72-1.69,8.74c-0.02,1.71,0.43,3.31,1.15,4.83
			c1.55,3.27,4.1,5.71,7.15,7.67c3.1,1.99,6.57,3.38,10.18,4.13c4.53,0.94,8.98,0.92,13.31-0.5c4.14-1.36,7.43-3.83,9.77-7.53
			c2.42-3.84,3.34-8.12,3.59-12.58c0.19-3.51-0.24-6.99-0.72-10.46c-0.57-4.1-1.19-8.18-1.83-12.27c-0.46-2.95-1-5.89-1.49-8.78
			c1.58-0.75,3.13-1.45,4.65-2.21c4.6-2.31,10.16-6.81,12.57-9.19c1.48-1.14,4.01-3.53,7.59-7.17c0.59-0.58,1.03-1.03,1.31-1.36
			c0.27-0.27,0.54-0.56,0.82-0.86l15.64-16.75h0.05c0.19,1.64,1.02,4.07,2.5,7.31c0.86,1.42,1.3,2.95,1.3,4.58
			c0,2.41-0.99,5.11-2.96,8.1c-3.3,4.26-6.49,6.39-9.58,6.39c-0.86,0-1.87-0.25-3.01-0.74c0-0.9,0.4-2.04,1.2-3.43
			c0.31-0.74,1.26-1.87,2.87-3.38c2.04-1.51,3.86-2.27,5.46-2.27h0.56c0.31,0,0.68,0.02,1.11,0.05c0.34,0,0.59-0.25,0.74-0.74
			c0-0.68-0.45-1.42-1.34-2.22c-0.65-0.65-1.68-0.97-3.1-0.97h-0.05c-2.81,0-5.46,1.1-7.96,3.29c-2.75,2.81-4.12,5.68-4.12,8.61
			c0,2.13,0.74,4.12,2.22,5.97c3.36,3.7,7.51,5.55,12.45,5.55c6.2-0.49,10.97-4.13,14.3-10.92c1.26-2.62,1.9-5.07,1.9-7.36V146.88z
			 M69.93,121.25h0.28c0.43,0,0.82,0.03,1.16,0.09c1.42,0.4,2.34,0.6,2.78,0.6l0.6-0.05c0,0.03,0.01,0.05,0.05,0.05
			c-2.04,4.01-3.05,6.03-3.05,6.06c-4.9,9.44-7.9,15.39-8.98,17.86c-2.01,1.97-4.04,3.83-6.11,5.55c-5.03,4.16-8.64,6.57-10.83,7.22
			c-0.15-0.59-0.23-1.19-0.23-1.81c0-1.91,0.46-4.53,1.39-7.87c0.62-2.25,1.53-4.75,2.73-7.5c1.33-2.9,2.9-5.71,4.72-8.42
			c1.11-1.6,2.31-3.16,3.61-4.67C62.54,123.62,66.5,121.25,69.93,121.25z M44.78,49.46c0.26-2.78,0.66-5.54,1.33-8.25
			c1.05-4.25,2.49-8.35,4.89-12.04c1.52-2.34,3.3-4.43,5.81-5.78c2.76-1.48,5.33-0.72,6.71,2.03c0.28,0.57,0.52,1.18,0.69,1.79
			c0.77,2.84,0.72,5.74,0.39,8.63c-0.73,6.42-3.59,11.95-7.24,17.14c-3.34,4.76-7.25,9.04-11.31,13.18
			c-0.06,0.06-0.14,0.12-0.29,0.24c-0.25-1.97-0.53-3.84-0.72-5.73c-0.22-2.18-0.45-4.37-0.52-6.56
			C44.48,52.57,44.64,51.01,44.78,49.46z M62,162.78c-0.47,0.3-1.03,0.53-1.65,0.64c-0.31,0.12-0.63,0.23-0.99,0.29c0,0,0,0,0,0
			c-0.19,0.06-0.4,0.1-0.6,0.14c0,0.01,0,0.01,0,0.02c-1.71,0.34-3.33,0.78-4.97,0.95c-2.12,0.21-4.27,0.31-6.41,0.25
			c-1.71-0.05-4.46-0.45-6.11-0.89c-7.95-2.09-14.48-6.03-18.95-12.63c-2.37-3.5-3.83-7.37-4.52-11.51
			c-1.11-6.71-0.73-13.33,1.51-19.78c1.48-4.27,3.82-8.05,6.71-11.52c3.28-3.93,7.08-7.32,10.96-10.64c2.76-2.37,5.53-4.73,8.3-7.09
			c0.13-0.11,0.27-0.21,0.46-0.35c0.81,4.54,3.38,18.81,4.84,26.91c-1.38,1.27-2.73,2.75-4.06,4.43c-2.71,3.61-4.87,7.08-6.48,10.41
			c-3.39,7.43-5.09,13.53-5.09,18.28c0,0.12-0.01,0.25-0.05,0.37c0.03,0.09,0.05,0.2,0.05,0.32v0.28c0,3.55,1,6.48,3.01,8.79
			c2.07,2.13,4.43,3.19,7.08,3.19c2.16,0,4.89-1.1,8.19-3.29c1.79-1.11,3.96-2.71,6.53-4.81h0.05v0.23c0,0.92,0.12,1.77,0.37,2.54
			c0.69,1.76,1.57,3.09,2.63,4C62.55,162.49,62.29,162.65,62,162.78z"/>
		<path d="M189.55,110.46c0.8,0,1.42-0.25,1.85-0.74c3.73-7.19,5.89-11.43,6.48-12.73c0.74-1.23,1.11-2.1,1.11-2.59v-0.28
			c0-0.96-0.59-2.18-1.76-3.66c-2.41-2.59-4.67-3.89-6.8-3.89c-0.68,0-1.25,0.22-1.71,0.65c-0.19,0.28-2.33,4.47-6.43,12.59
			c-0.83,1.45-1.25,2.41-1.25,2.87v0.18c0,1.33,0.91,2.92,2.73,4.77C185.92,109.52,187.85,110.46,189.55,110.46z"/>
		<path d="M288.76,102.69c-0.53-1.57-1.59-2.91-3.19-4.03c-1.11-0.83-2.39-1.25-3.84-1.25h-17.86c1.11-2.16,2.25-4.4,3.43-6.71
			c0.68-1.2,1.02-2.04,1.02-2.5v-0.23c0-0.99-0.62-2.25-1.85-3.79c-2.41-2.5-4.63-3.75-6.66-3.75h-0.05c-0.77,0-1.37,0.25-1.81,0.74
			c-0.53,0.99-3.08,6-7.68,15.04c-0.22,0.4-0.42,0.8-0.6,1.2h-20.41c-0.4,0-0.74,0.02-1.02,0.05c-0.74,0.25-1.11,0.73-1.11,1.44
			c0,0.92,0.51,1.99,1.53,3.19c1.82,1.82,3.47,2.73,4.95,2.73h12.26c-10.92,21.44-16.54,32.48-16.84,33.13
			c-1.46,2.71-2.67,5.13-3.66,7.32c-0.65,0.68-1.48,1.55-2.49,2.62c-4.17,4.23-6.63,6.57-7.4,7.03h-0.05
			c1.3-2.62,1.94-5.07,1.94-7.36v-0.69c0-1.7-0.4-3.58-1.2-5.65c-1.91-3.67-2.87-6.52-2.87-8.56c0.03-0.06,0.05-0.14,0.05-0.23
			v-0.28c0-2.87,1.93-6.4,5.79-10.6c0.86-0.77,1.3-1.46,1.3-2.08v-0.23c0-1.33-0.86-2.87-2.59-4.63c-2.19-2-4.18-3.01-5.97-3.01
			c-0.43,0-0.88,0.12-1.34,0.37c-1.3,1.3-2.45,2.59-3.47,3.89c-1.64,2.16-2.7,3.89-3.19,5.18l-20.31,21.79
			c-0.31,0.31-0.59,0.59-0.86,0.87c-0.01,0.01-0.01,0.01-0.02,0.01c-3.7,3.83-6.29,6.35-7.77,7.59c-2.99,2.59-5.34,4.44-7.03,5.55
			l-0.09-0.05c0.49-1.33,1.02-2.61,1.57-3.84c1.57-3.21,6.46-12.86,14.67-28.97c1.42-2.62,2.13-4.13,2.13-4.53
			c0-1.42-0.8-2.98-2.41-4.67c-2.28-2.13-4.33-3.19-6.15-3.19c-0.77,0-1.37,0.25-1.8,0.74c-0.9,1.67-5.37,10.44-13.42,26.33
			c-1.27,2.36-2.34,4.49-3.24,6.46c-0.75,0.76-1.85,1.91-3.33,3.45c-3.98,4.01-6.32,6.25-7.03,6.71h-0.05
			c1.23-2.5,1.85-4.83,1.85-6.99v-0.69c0-1.6-0.39-3.39-1.16-5.37c-1.79-3.49-2.68-6.19-2.68-8.1c0.03-0.06,0.05-0.14,0.05-0.23
			v-0.28c0-2.68,1.82-6.03,5.46-10.04c0.09-0.09,0.17-0.35,0.23-0.79v-0.23c0-1.26-0.8-2.73-2.41-4.4c-2.1-1.91-4-2.87-5.69-2.87
			c-0.4,0-0.83,0.12-1.3,0.37c-0.56,0.46-1.31,1.3-2.27,2.5c-1.57,2.07-2.59,3.72-3.05,4.95c-1.2,3.05-1.53,5.8-0.97,8.24h0.05
			c0.15,1.54,0.94,3.86,2.36,6.94c0.8,1.36,1.2,2.81,1.2,4.35c0,2.28-0.93,4.84-2.78,7.68c-3.15,4.04-6.19,6.06-9.12,6.06
			c-0.83,0-1.79-0.23-2.87-0.69c0-0.86,0.4-1.94,1.2-3.24c0.28-0.71,1.17-1.79,2.68-3.24c1.91-1.42,3.64-2.13,5.18-2.13h0.56
			c0.28,0,0.62,0.01,1.02,0.05c0.34,0,0.57-0.23,0.69-0.69c0-0.65-0.42-1.34-1.25-2.08c-0.62-0.65-1.6-0.97-2.96-0.97h-0.05
			c-2.65,0-5.17,1.05-7.54,3.15c-2.59,2.65-3.89,5.37-3.89,8.14c0,2.01,0.69,3.9,2.08,5.69c3.21,3.48,7.16,5.23,11.85,5.23
			c1.36,0,3.38-0.31,6.06-0.92c2.19-0.62,3.79-1.2,4.81-1.76c1.36-0.49,3.56-2,6.62-4.53c0.84-0.73,1.91-1.73,3.18-2.96
			c-0.01,0.15-0.03,0.32-0.03,0.46c0,0.59,0.11,1.31,0.32,2.17c1.42,3.79,3.69,5.69,6.8,5.69c3.64,0,8.7-2.81,15.18-8.42
			c1.73-1.45,4.2-3.82,7.4-7.13c0.36-0.33,0.62-0.6,0.82-0.84c0.28-0.28,0.56-0.57,0.85-0.87l15.64-16.75h0.05
			c0.15,1.64,0.97,4.07,2.45,7.31c0.86,1.42,1.3,2.95,1.3,4.58c0,2.41-0.97,5.11-2.91,8.1c-3.3,4.26-6.49,6.39-9.58,6.39
			c-0.9,0-1.91-0.25-3.05-0.74c0-0.9,0.42-2.04,1.25-3.43c0.31-0.74,1.26-1.87,2.87-3.38c2-1.51,3.83-2.27,5.46-2.27h0.56
			c0.31,0,0.68,0.02,1.11,0.05c0.34,0,0.59-0.25,0.74-0.74c0-0.68-0.45-1.42-1.34-2.22c-0.68-0.65-1.73-0.97-3.15-0.97h-0.05
			c-2.78,0-5.43,1.1-7.96,3.29c-2.71,2.81-4.07,5.68-4.07,8.61c0,2.13,0.72,4.12,2.17,5.97c3.39,3.7,7.56,5.55,12.49,5.55
			c1.42,0,3.55-0.34,6.39-1.02c2.31-0.65,4.01-1.26,5.09-1.85c1.42-0.52,3.75-2.11,6.99-4.77c0.7-0.61,1.56-1.41,2.55-2.36
			c0.01,0.92,0.12,1.74,0.36,2.45c1.42,3.64,3.64,5.46,6.66,5.46c3.55,0,8.39-2.62,14.53-7.87c1.51-1.17,4.04-3.56,7.59-7.17
			c1.14-1.11,1.71-1.77,1.71-1.99c0-0.46-0.19-0.94-0.55-1.44c-0.99-1.17-1.91-1.76-2.78-1.76h-0.28l-0.28,0.05
			c-2.35,2.44-4.34,4.43-5.97,5.97c-3.79,3.43-6.82,5.86-9.07,7.31h-0.09l0.32-0.88c1.08-2.68,3.29-7.23,6.62-13.65
			c1.39-2.71,7.77-15.22,19.16-37.53h27.16c0.15,0,0.25-0.01,0.28-0.05c0.83-0.15,1.25-0.63,1.25-1.43
			C288.8,103.18,288.79,102.97,288.76,102.69z"/>
	</g>
</g>
</svg>
